<?xml version="1.0" encoding="utf-8"?>
<!-- Generator: Adobe Illustrator 23.0.3, SVG Export Plug-In . SVG Version: 6.00 Build 0)  -->
<svg version="1.1" id="Capa_1" xmlns="http://www.w3.org/2000/svg" xmlns:xlink="http://www.w3.org/1999/xlink" x="0px" y="0px"
	 viewBox="0 0 1200 1200" enable-background="new 0 0 1200 1200" xml:space="preserve">
<g>
	<g>
		<g>
			<path fill="#E2AB62" d="M1039.488,549.307c53.21,6.124,90.371,39.703,101.967,98.888c2.271,11.595,2.397,14.273-1.59,30.302
				c-47.901,192.583-405.995,246.845-562.54,261.819c-130.184,12.453-362.971-58.634-438.576-137.625
				C9.602,667.76,47.431,656.302,140.162,577.63c0.135-0.115,2.979,2.487,1.496,0.928
				c-7.614-104.857,33.268-170.189,134.271-150.756c28.984-115.489,97.05-115.489,155.658-85.226c0.193,0.06,0.614,0.304,0.818,0.39
				c38.73-72.492,90.816-74.026,157.905-45.39c70.4-56.759,136.303-51.548,173.561,40.993c79.094-41.174,112.801-7.77,152.24,69.785
				c-0.077,1.149-0.157,2.297-0.234,3.446c92.63-13.393,126.658,37.66,123.426,135.094
				C1039.385,547.677,1039.3,548.633,1039.488,549.307z"/>
		</g>
		<path fill="#DB8934" d="M1084.591,561.891c31.977,27.248,35.911,66.726,26.506,107.766c-14.63,49.648-75.219,51.33-100.953,48.052
			c-29.734-3.788-57.72-44.353-68.684-33.03c-31.924,32.969-58.41,77.197-104.385,95.862
			c-176.073,71.485-368.546,72.5-552.242,35.822c-47.781-16.274-91.16-62.318-125.474-72.104
			c-30.54-8.709-34.068,11.857-61.981-2.221c-12.879-11.813-23.468-22.912-34.037-40.795c23.618,52.211,21.18,45.477,68.158,95.47
			c95.65,101.787,320.522,152.749,442.311,143.777c174.304-12.841,511.19-66.858,567.889-260.424
			c4.719-16.11,1.793-19.005,0.401-30.79C1137.243,608.152,1113.919,583.615,1084.591,561.891z"/>
		<path fill="#DB8934" d="M280.347,412.558c-1.521,5.477-2.621,10.855-3.589,16.391c-37.078-10.905-67.281-8.023-97.333,19.278
			c27.584-14.701,65.504-18.358,81.042,8.142c16.811,28.672,13.32,39.716,13.886,9.924
			C274.721,446.911,276.346,430.784,280.347,412.558z"/>
		<g>
			<path fill="#DB8934" d="M431.178,343.569c-51.822-16.293-95.516-14.178-133.315,31.179
				c32.047-34.603,67.749-38.492,105.199-16.759c17.43,10.115,6.996,39.547,12.523,44.988c8.739,8.602,2.615-15.522,5.111-21.959
				C423.192,374.58,427.434,352.39,431.178,343.569z"/>
		</g>
		<path fill="#DB8934" d="M569.321,333.256c2.534-7.847,13.893-26.921,20.661-34.799c-43.104-19.977-82.4-28.589-124.19-0.872
			c35.978-6.375,52.092,27.803,72.13,56.821c2.527,3.66,11.72,11.387,19.492,5.12C563.068,354.966,565.699,344.47,569.321,333.256z"
			/>
		<path fill="#DB8934" d="M608.396,283.741c74.799-34.533,101.805-5.623,115.791,77.696c0.75,4.47,1.572,13.467,6.162,8.474
			c10.602-11.536,21.47-21.887,34.301-30.452C734.57,261.72,675.038,247.905,608.396,283.741z"/>
		<path fill="#DB8934" d="M778.499,331.619c47.118-4.115,66.743,6.895,89.055,55.174c2.793,6.045,8.831,40.456,19.328,38.516
			c10.497-1.939,19.049-10.941,29.878-12.62c0.016-1.268,0.127-2.074,0.182-3.16C884.649,345.116,846.969,306.22,778.499,331.619z"
			/>
		<g>
			<path fill="#DB8934" d="M924.162,412.276c19.543-2.056,46.273,7.413,58.128,21.126c30.856,35.693,27.807,64.392,23.877,107.305
				c-0.572,6.247-9.784,23.243-5.3,22.269c11.466-2.491,23.034-12.014,34.906-12.555c2.081-0.095,3.296,0.713,4.374-0.045
				c1.078-0.758-0.28-0.694,0.168-1.307C1043.783,456.124,1013.078,404.707,924.162,412.276z"/>
		</g>
		<g>
			<g>
				<path fill="#000200" d="M1047.57,548.043c1.155-43.156-2.503-95.943-39.116-125.103c-36.645-29.185-86.312-21.592-125.289-3.398
					c-8.697,4.06-1.126,16.931,7.534,12.889c35.034-16.353,83.052-23.409,113.838,6.885c27.735,27.293,29.076,72.51,28.107,108.727
					C1032.387,557.652,1047.314,557.646,1047.57,548.043L1047.57,548.043z"/>
			</g>
			<g>
				<path fill="#000200" d="M733.891,376.151c28.815-26.011,68.23-58.671,110.35-43.02c33.016,12.268,51.286,50.876,66.19,80.146
					c4.36,8.562,17.243,1.017,12.889-7.534c-17.603-34.57-40.046-78.046-80.818-88.871c-46.587-12.369-87.278,19.94-119.165,48.724
					C716.19,372.047,726.773,382.576,733.891,376.151L733.891,376.151z"/>
			</g>
			<g>
				<path fill="#000200" d="M772.261,339.208c-12.319-44.292-52.134-86.805-100.544-84.701
					c-23.872,1.038-46.557,11.46-66.091,24.625c-26.34,17.751-36.027,37.251-47.91,65.746c-3.693,8.855,10.744,12.719,14.393,3.968
					c10.693-25.641,19.756-42.967,43.962-58.725c16.629-10.825,35.545-19.619,55.646-20.687
					c41.638-2.213,75.658,36.017,86.15,73.742C760.438,352.418,774.843,348.493,772.261,339.208L772.261,339.208z"/>
			</g>
			<g>
				<path fill="#000200" d="M595.808,292.748c-33.459-16.71-77.975-26.827-113.433-10.651
					c-48.156,21.969-62.268,73.65-72.141,120.792c-1.963,9.372,12.422,13.379,14.393,3.968
					c8.702-41.55,18.956-87.869,60.353-109.466c31.445-16.405,73.011-6.877,103.294,8.246
					C596.844,309.916,604.412,297.045,595.808,292.748L595.808,292.748z"/>
			</g>
			<g>
				<path fill="#000200" d="M284.429,488.997c-2.201-45.411-0.773-97.079,37.084-129.589c30.54-26.225,73.437-18.277,108.841-8.395
					c9.267,2.587,13.222-11.811,3.968-14.393c-39.288-10.966-85.349-18.064-119.774,9.259
					c-16.517,13.109-27.263,31.621-34.957,50.972c-12.64,31.792-11.712,58.68-10.09,92.146
					C269.966,498.559,284.895,498.615,284.429,488.997L284.429,488.997z"/>
			</g>
			<g>
				<path fill="#000200" d="M133.565,571.226c-26.669,27.361-74.416,58.404-82.447,98.595c-9.31,46.593,41.758,94.4,69.315,124.706
					c38.936,42.82,87.48,69.626,140.76,91.299c63.463,25.815,130.659,43.953,198.434,53.933
					c105.582,15.547,214.635-2.742,318.377-24.003c107.97-22.127,228.67-55.549,309.971-134.496
					c37.299-36.219,72.83-90.897,58.954-144.548c-7.975-30.834-25.43-58.964-52.826-76.007
					c-30.512-18.982-59.758-20.592-91.499-5.581c-8.678,4.104-1.111,16.977,7.534,12.889c33.622-15.901,70.553-5.955,95.767,21.518
					c20.35,22.173,35.471,58.19,28.01,88.252c-11.01,44.358-40.832,81.727-75.792,110.014
					c-79.553,64.367-185.642,93.392-284.086,113.567c-88.448,18.127-184.472,36.456-275.006,28.237
					c-109.413-9.933-232.872-41.864-324.04-105.318c-27.56-19.182-49.749-45.349-70.896-71.16
					c-15.328-18.709-36.422-42.933-38.818-68.279c-1.795-18.987,9.958-33.832,22.215-47.024
					c18.065-19.442,38.103-37.032,56.629-56.038C150.829,574.898,140.285,564.333,133.565,571.226L133.565,571.226z"/>
			</g>
			<g>
				<path fill="#000200" d="M221.739,648.476c79.884-111.247,198.359-206.498,339.019-219.764
					c144.097-13.59,266.101,68.836,345.821,183.285c5.452,7.827,18.397,0.374,12.889-7.534
					c-65.504-94.04-158.235-170.85-274.391-188.298C540.651,400.481,436.048,435.037,351.35,495.6
					c-55.679,39.813-102.674,89.88-142.5,145.342C203.238,648.758,216.179,656.218,221.739,648.476L221.739,648.476z"/>
			</g>
			<g>
				<path fill="#000200" d="M279.444,422.001c-41.761-13.287-94.08-0.179-119.938,35.785
					c-31.802,44.231-31.037,108.299-13.1,156.974c3.294,8.938,17.725,5.074,14.393-3.968c-15.677-42.544-17.926-96.58,6.281-137.334
					c21.326-35.904,69.043-49.584,108.395-37.063C284.651,439.314,288.578,424.908,279.444,422.001L279.444,422.001z"/>
			</g>
		</g>
		<path fill="#EEC698" d="M554.754,470.234c-59.66,6.065-129.193,32.886-170.568,64.905
			c-57.634,44.602-108.113,60.799-130.129,134.163C225.58,764.198,453.83,541.507,522.62,534.33
			c64.262-6.705,210.428-20.164,104.413-62.03C593.903,459.216,577.872,467.883,554.754,470.234z"/>
		<path fill="#EEC698" d="M771.145,511.909c-23.703-21.123-65.812-27.789-68.737,2.483c-2.925,30.272,84.326,50.364,116.17,90.138
			c36.738,45.888,49.319,16.309,23.623-21.639S794.849,533.031,771.145,511.909z"/>
		<path fill="#EEC698" d="M192.558,478.348c-19.802,20.142-44.702,49.415-22.397,76.325c22.305,26.909,71.321-58.585,56.465-77.514
			C211.77,458.229,199.447,471.34,192.558,478.348z"/>
		<path fill="#EEC698" d="M333.094,385.505c-20.746,12.964-34.296,48.286-28.907,74.802c5.389,26.517,70.304-49.829,63.185-67.284
			C360.253,375.568,343.713,378.869,333.094,385.505z"/>
		<path fill="#EEC698" d="M479.07,325.602c-20.36,6.148-38.441,32.485-37.13,59.605c1.31,27.12,64.838-31.357,60.842-44.409
			C498.785,327.746,489.25,322.528,479.07,325.602z"/>
		<path fill="#EEC698" d="M650.931,295.924c-15.067,0.597-37.584,11.974-34.401,26.955c3.184,14.981,73.706,20.51,70.529,2.065
			C683.882,306.498,663.486,295.427,650.931,295.924z"/>
		<path fill="#EEC698" d="M781.868,360.735c-45.526,29.013-28.612,30.632,4.242,48.453c32.854,17.82,52.576,3.742,38.307-20.899
			C810.147,363.647,799.988,367.951,781.868,360.735z"/>
		<path fill="#EEC698" d="M127.223,625.737c-25.588-0.886-48.837,14.499-40.487,40.707c8.351,26.208,36.972,14.994,52.443,0.677
			C154.649,652.802,142.505,626.266,127.223,625.737z"/>
		<path fill="#EEC698" d="M946.242,436.947c-17.537-0.928-42.377-1.399-35.009,15.601c7.368,17,69.636,45.64,70.972,19.893
			C983.542,446.693,955.809,437.453,946.242,436.947z"/>
		<path fill="#EEC698" d="M1050.155,578.544c-24.574-6.129-71.296,7.289-51.671,32.142c19.625,24.853,86.407,38.206,90.893,2.623
			C1092.549,588.157,1058.128,580.532,1050.155,578.544z"/>
	</g>
</g>
</svg>
